{
    "asset": {
        "version": "2.0",
        "generator": "goxel"
    },
    "buffers": [
        {
            "byteLength": 122304,
            "uri": "data:application/octet-stream;base64,"
        },
        {
            "byteLength": 13104,
            "uri": "data:application/octet-stream;base64,"
        },
        {
            "byteLength": 122304,
            "uri": "data:application/octet-stream;base64,"
        },
        {
            "byteLength": 13104,
            "uri": "data:application/octet-stream;base64,"
        },
        {
            "byteLength": 27104,
            "uri": "data:application/octet-stream;base64,"
        },
        {
            "byteLength": 2904,
            "uri": "data:application/octet-stream;base64,"
        },
        {
            "byteLength": 27104,
            "uri": "data:application/octet-stream;base64,"
        },
        {
            "byteLength": 2904,
            "uri": "data:application/octet-stream;base64,"
        },
        {
            "byteLength": 60928,
            "uri": "data:application/octet-stream;base64,"
        },
        {
            "byteLength": 6528,
            "uri": "data:application/octet-stream;base64,"
        },
        {
            "byteLength": 60928,
            "uri": "data:application/octet-stream;base64,"
        },
        {
            "byteLength": 6528,
            "uri": "data:application/octet-stream;base64,"
        }
    ],
    "bufferViews": [
        {
            "buffer": 1,
            "byteLength": 13104,
            "target": 34963
        },
        {
            "buffer": 0,
            "byteLength": 122304,
            "byteStride": 28,
            "target": 34962
        },
        {
            "buffer": 3,
            "byteLength": 13104,
            "target": 34963
        },
        {
            "buffer": 2,
            "byteLength": 122304,
            "byteStride": 28,
            "target": 34962
        },
        {
            "buffer": 5,
            "byteLength": 2904,
            "target": 34963
        },
        {
            "buffer": 4,
            "byteLength": 27104,
            "byteStride": 28,
            "target": 34962
        },
        {
            "buffer": 7,
            "byteLength": 2904,
            "target": 34963
        },
        {
            "buffer": 6,
            "byteLength": 27104,
            "byteStride": 28,
            "target": 34962
        },
        {
            "buffer": 9,
            "byteLength": 6528,
            "target": 34963
        },
        {
            "buffer": 8,
            "byteLength": 60928,
            "byteStride": 28,
            "target": 34962
        },
        {
            "buffer": 11,
            "byteLength": 6528,
            "target": 34963
        },
        {
            "buffer": 10,
            "byteLength": 60928,
            "byteStride": 28,
            "target": 34962
        }
    ],
    "meshes": [
        {
            "primitives": [
                {
                    "attributes": {
                        "POSITION": 1,
                        "COLOR_0": 2,
                        "NORMAL": 3
                    },
                    "indices": 0
                }
            ]
        },
        {
            "primitives": [
                {
                    "attributes": {
                        "POSITION": 5,
                        "COLOR_0": 6,
                        "NORMAL": 7
                    },
                    "indices": 4
                }
            ]
        },
        {
            "primitives": [
                {
                    "attributes": {
                        "POSITION": 9,
                        "COLOR_0": 10,
                        "NORMAL": 11
                    },
                    "indices": 8
                }
            ]
        },
        {
            "primitives": [
                {
                    "attributes": {
                        "POSITION": 13,
                        "COLOR_0": 14,
                        "NORMAL": 15
                    },
                    "indices": 12
                }
            ]
        },
        {
            "primitives": [
                {
                    "attributes": {
                        "POSITION": 17,
                        "COLOR_0": 18,
                        "NORMAL": 19
                    },
                    "indices": 16
                }
            ]
        },
        {
            "primitives": [
                {
                    "attributes": {
                        "POSITION": 21,
                        "COLOR_0": 22,
                        "NORMAL": 23
                    },
                    "indices": 20
                }
            ]
        }
    ],
    "accessors": [
        {
            "bufferView": 0,
            "componentType": 5123,
            "count": 6552,
            "type": "SCALAR"
        },
        {
            "bufferView": 1,
            "componentType": 5126,
            "byteOffset": 0,
            "type": "VEC3",
            "count": 4368,
            "min": [
                0.000000000000,
                0.000000000000,
                0.000000000000
            ],
            "max": [
                16.000000000000,
                16.000000000000,
                16.000000000000
            ]
        },
        {
            "bufferView": 1,
            "componentType": 5121,
            "byteOffset": 24,
            "type": "VEC4",
            "count": 4368,
            "normalized": true
        },
        {
            "bufferView": 1,
            "componentType": 5126,
            "byteOffset": 12,
            "type": "VEC3",
            "count": 4368
        },
        {
            "bufferView": 2,
            "componentType": 5123,
            "count": 6552,
            "type": "SCALAR"
        },
        {
            "bufferView": 3,
            "componentType": 5126,
            "byteOffset": 0,
            "type": "VEC3",
            "count": 4368,
            "min": [
                0.000000000000,
                0.000000000000,
                0.000000000000
            ],
            "max": [
                16.000000000000,
                16.000000000000,
                16.000000000000
            ]
        },
        {
            "bufferView": 3,
            "componentType": 5121,
            "byteOffset": 24,
            "type": "VEC4",
            "count": 4368,
            "normalized": true
        },
        {
            "bufferView": 3,
            "componentType": 5126,
            "byteOffset": 12,
            "type": "VEC3",
            "count": 4368
        },
        {
            "bufferView": 4,
            "componentType": 5123,
            "count": 1452,
            "type": "SCALAR"
        },
        {
            "bufferView": 5,
            "componentType": 5126,
            "byteOffset": 0,
            "type": "VEC3",
            "count": 968,
            "min": [
                0.000000000000,
                14.000000000000,
                0.000000000000
            ],
            "max": [
                16.000000000000,
                16.000000000000,
                6.000000000000
            ]
        },
        {
            "bufferView": 5,
            "componentType": 5121,
            "byteOffset": 24,
            "type": "VEC4",
            "count": 968,
            "normalized": true
        },
        {
            "bufferView": 5,
            "componentType": 5126,
            "byteOffset": 12,
            "type": "VEC3",
            "count": 968
        },
        {
            "bufferView": 6,
            "componentType": 5123,
            "count": 1452,
            "type": "SCALAR"
        },
        {
            "bufferView": 7,
            "componentType": 5126,
            "byteOffset": 0,
            "type": "VEC3",
            "count": 968,
            "min": [
                0.000000000000,
                14.000000000000,
                0.000000000000
            ],
            "max": [
                16.000000000000,
                16.000000000000,
                6.000000000000
            ]
        },
        {
            "bufferView": 7,
            "componentType": 5121,
            "byteOffset": 24,
            "type": "VEC4",
            "count": 968,
            "normalized": true
        },
        {
            "bufferView": 7,
            "componentType": 5126,
            "byteOffset": 12,
            "type": "VEC3",
            "count": 968
        },
        {
            "bufferView": 8,
            "componentType": 5123,
            "count": 3264,
            "type": "SCALAR"
        },
        {
            "bufferView": 9,
            "componentType": 5126,
            "byteOffset": 0,
            "type": "VEC3",
            "count": 2176,
            "min": [
                0.000000000000,
                0.000000000000,
                0.000000000000
            ],
            "max": [
                16.000000000000,
                16.000000000000,
                1.000000000000
            ]
        },
        {
            "bufferView": 9,
            "componentType": 5121,
            "byteOffset": 24,
            "type": "VEC4",
            "count": 2176,
            "normalized": true
        },
        {
            "bufferView": 9,
            "componentType": 5126,
            "byteOffset": 12,
            "type": "VEC3",
            "count": 2176
        },
        {
            "bufferView": 10,
            "componentType": 5123,
            "count": 3264,
            "type": "SCALAR"
        },
        {
            "bufferView": 11,
            "componentType": 5126,
            "byteOffset": 0,
            "type": "VEC3",
            "count": 2176,
            "min": [
                0.000000000000,
                0.000000000000,
                0.000000000000
            ],
            "max": [
                16.000000000000,
                16.000000000000,
                1.000000000000
            ]
        },
        {
            "bufferView": 11,
            "componentType": 5121,
            "byteOffset": 24,
            "type": "VEC4",
            "count": 2176,
            "normalized": true
        },
        {
            "bufferView": 11,
            "componentType": 5126,
            "byteOffset": 12,
            "type": "VEC3",
            "count": 2176
        }
    ],
    "nodes": [
        {
            "matrix": [
                1,
                0,
                0,
                0,
                0,
                0,
                -1,
                0,
                0,
                1,
                0,
                0,
                0,
                0,
                0,
                1
            ],
            "children": [
                1,
                2,
                3,
                4,
                5,
                6
            ]
        },
        {
            "translation": [
                -16,
                0,
                0
            ],
            "mesh": 0
        },
        {
            "translation": [
                0,
                0,
                0
            ],
            "mesh": 1
        },
        {
            "translation": [
                -16,
                0,
                16
            ],
            "mesh": 2
        },
        {
            "translation": [
                0,
                0,
                16
            ],
            "mesh": 3
        },
        {
            "translation": [
                -16,
                -16,
                0
            ],
            "mesh": 4
        },
        {
            "translation": [
                0,
                -16,
                0
            ],
            "mesh": 5
        }
    ],
    "scenes": [
        {
            "nodes": [
                0
            ]
        }
    ]
}